<svg xmlns="http://www.w3.org/2000/svg" viewBox="0 0 500 900" overflow="hidden" preserveAspectRatio="xMidYMid meet" id="eaf-754:0"><defs><clipPath id="eaf-754:1"><rect x="0" y="0" width="500" height="900"></rect></clipPath></defs><g clip-path="url('#eaf-754:1')" style="isolation: isolate;"><g><line x1="0" y1="0" x2="0" y2="800" transform="translate(40 10.949646)" fill="rgb(186 186 186)" stroke="rgb(36 123 160)" stroke-width="5" stroke-linecap="round" stroke-dasharray="0"></line><line x1="0" y1="0" x2="-80" y2="0" transform="translate(410 10.949646)" fill="rgb(186 186 186)" stroke="rgb(36 123 160)" stroke-width="5" stroke-linecap="round" stroke-dasharray="0"></line><line x1="0" y1="0" x2="0" y2="800" transform="translate(470 50.949646)" fill="rgb(186 186 186)" stroke="rgb(36 123 160)" stroke-width="5" stroke-linecap="round" stroke-dasharray="0"></line><line x1="0" y1="0" x2="-210" y2="-580.474823" transform="matrix(-1 0 0 -1 180 270.47479248046875)" fill="rgb(186 186 186)" stroke="rgb(36 123 160)" stroke-width="5" stroke-linecap="round" stroke-dasharray="0"></line><line x1="0" y1="0" x2="80" y2="0" transform="translate(100 850.949646)" fill="rgb(186 186 186)" stroke="rgb(36 123 160)" stroke-width="5" stroke-linecap="round" stroke-dasharray="0"></line><line x1="0" y1="0" x2="80" y2="0" transform="translate(390 850.949646)" fill="rgb(186 186 186)" stroke="rgb(36 123 160)" stroke-width="5" stroke-linecap="round" stroke-dasharray="0"></line><line x1="0" y1="0" x2="-80" y2="0" transform="matrix(-1 0 0 1 390.25409842396743 50.94964599609375)" fill="rgb(186 186 186)" stroke="rgb(36 123 160)" stroke-width="5" stroke-linecap="round" stroke-dasharray="0"></line><line x1="0" y1="0" x2="0" y2="580.474823" transform="matrix(1 0 0 -1 179.99999999999994 850.9496459960938)" fill="rgb(186 186 186)" stroke="rgb(36 123 160)" stroke-width="5" stroke-linecap="round" stroke-dasharray="0"></line><line x1="0" y1="0" x2="-0" y2="579.050354" transform="matrix(1 0 0 -1 390 630)" fill="rgb(186 186 186)" stroke="rgb(36 123 160)" stroke-width="5" stroke-linecap="round" stroke-dasharray="0"></line><line x1="0" y1="0" x2="60" y2="40" transform="matrix(-1 0 0 -1 390.00000000000006 50.94964599609375)" fill="rgb(186 186 186)" stroke="rgb(36 123 160)" stroke-width="5" stroke-linecap="round" stroke-dasharray="0"></line><line x1="0" y1="0" x2="60" y2="40" transform="translate(410 10.949646)" fill="rgb(186 186 186)" stroke="rgb(36 123 160)" stroke-width="5" stroke-linecap="round" stroke-dasharray="0"></line><line x1="0" y1="0" x2="60" y2="40" transform="translate(40 810.94967651)" fill="rgb(186 186 186)" stroke="rgb(36 123 160)" stroke-width="5" stroke-linecap="round" stroke-dasharray="0"></line><line x1="0" y1="0" x2="60" y2="40" transform="matrix(-0.999979628332462 0.006383018100491092 -0.006383018100491092 -0.999979628332462 390.25409842396743 850.9488616469699)" fill="rgb(186 186 186)" stroke="rgb(36 123 160)" stroke-width="5" stroke-linecap="round" stroke-dasharray="0"></line><line x1="0" y1="0" x2="-150" y2="-413.64303068" transform="translate(330 810.94967651)" fill="rgb(186 186 186)" stroke="rgb(36 123 160)" stroke-width="5" stroke-linecap="round" stroke-dasharray="0"></line><line x1="0" y1="0" x2="0" y2="800" transform="translate(100 50.949646)" fill="rgb(186 186 186)" stroke="rgb(36 123 160)" stroke-width="5" stroke-linecap="round" stroke-dasharray="0"></line><line x1="0" y1="0" x2="210" y2="579.050354" transform="translate(180 50.949646)" fill="rgb(186 186 186)" stroke="rgb(36 123 160)" stroke-width="5" stroke-linecap="round" stroke-dasharray="0"></line><line x1="0" y1="0" x2="0" y2="449.94820814" transform="translate(330 10.949646)" fill="rgb(186 186 186)" stroke="rgb(36 123 160)" stroke-width="5" stroke-linecap="round" stroke-dasharray="0"></line><line x1="0" y1="0" x2="80" y2="0" transform="translate(100 50.949646)" fill="rgb(186 186 186)" stroke="rgb(36 123 160)" stroke-width="5" stroke-linecap="round" stroke-dasharray="0"></line><line x1="0" y1="0" x2="60" y2="40" transform="translate(120 10.949646)" fill="rgb(186 186 186)" stroke="rgb(36 123 160)" stroke-width="5" stroke-linecap="round" stroke-dasharray="0"></line><line x1="0" y1="0" x2="60" y2="40" transform="translate(40 10.949646)" fill="rgb(186 186 186)" stroke="rgb(36 123 160)" stroke-width="5" stroke-linecap="round" stroke-dasharray="0"></line><line x1="0" y1="0" x2="80" y2="0" transform="translate(40 10.949646)" fill="rgb(186 186 186)" stroke="rgb(36 123 160)" stroke-width="5" stroke-linecap="round" stroke-dasharray="0"></line></g></g></svg>